<svg xmlns="http://www.w3.org/2000/svg" width="1200" height="630" viewBox="0 0 1200 630">
  <defs>
    <linearGradient id="bg" x1="0%" y1="0%" x2="100%" y2="100%">
      <stop offset="0%" stop-color="#0a0e27" />
      <stop offset="50%" stop-color="#151a3d" />
      <stop offset="100%" stop-color="#1e1145" />
    </linearGradient>
    <linearGradient id="accent" x1="0%" y1="0%" x2="100%" y2="0%">
      <stop offset="0%" stop-color="#dc2626" />
      <stop offset="100%" stop-color="#f87171" />
    </linearGradient>
    <linearGradient id="glow" x1="0%" y1="0%" x2="100%" y2="100%">
      <stop offset="0%" stop-color="#dc2626" stop-opacity="0.15" />
      <stop offset="100%" stop-color="#7c3aed" stop-opacity="0.08" />
    </linearGradient>
  </defs>

  <!-- Background -->
  <rect width="1200" height="630" fill="url(#bg)" />

  <!-- Subtle grid pattern -->
  <g opacity="0.04">
    <line x1="0" y1="0" x2="0" y2="630" stroke="#fff" stroke-width="1" />
    <line x1="60" y1="0" x2="60" y2="630" stroke="#fff" stroke-width="1" />
    <line x1="120" y1="0" x2="120" y2="630" stroke="#fff" stroke-width="1" />
    <line x1="180" y1="0" x2="180" y2="630" stroke="#fff" stroke-width="1" />
    <line x1="240" y1="0" x2="240" y2="630" stroke="#fff" stroke-width="1" />
    <line x1="300" y1="0" x2="300" y2="630" stroke="#fff" stroke-width="1" />
    <line x1="360" y1="0" x2="360" y2="630" stroke="#fff" stroke-width="1" />
    <line x1="420" y1="0" x2="420" y2="630" stroke="#fff" stroke-width="1" />
    <line x1="480" y1="0" x2="480" y2="630" stroke="#fff" stroke-width="1" />
    <line x1="540" y1="0" x2="540" y2="630" stroke="#fff" stroke-width="1" />
    <line x1="600" y1="0" x2="600" y2="630" stroke="#fff" stroke-width="1" />
    <line x1="660" y1="0" x2="660" y2="630" stroke="#fff" stroke-width="1" />
    <line x1="720" y1="0" x2="720" y2="630" stroke="#fff" stroke-width="1" />
    <line x1="780" y1="0" x2="780" y2="630" stroke="#fff" stroke-width="1" />
    <line x1="840" y1="0" x2="840" y2="630" stroke="#fff" stroke-width="1" />
    <line x1="900" y1="0" x2="900" y2="630" stroke="#fff" stroke-width="1" />
    <line x1="960" y1="0" x2="960" y2="630" stroke="#fff" stroke-width="1" />
    <line x1="1020" y1="0" x2="1020" y2="630" stroke="#fff" stroke-width="1" />
    <line x1="1080" y1="0" x2="1080" y2="630" stroke="#fff" stroke-width="1" />
    <line x1="1140" y1="0" x2="1140" y2="630" stroke="#fff" stroke-width="1" />
    <line x1="1200" y1="0" x2="1200" y2="630" stroke="#fff" stroke-width="1" />
    <line x1="0" y1="0" x2="1200" y2="0" stroke="#fff" stroke-width="1" />
    <line x1="0" y1="60" x2="1200" y2="60" stroke="#fff" stroke-width="1" />
    <line x1="0" y1="120" x2="1200" y2="120" stroke="#fff" stroke-width="1" />
    <line x1="0" y1="180" x2="1200" y2="180" stroke="#fff" stroke-width="1" />
    <line x1="0" y1="240" x2="1200" y2="240" stroke="#fff" stroke-width="1" />
    <line x1="0" y1="300" x2="1200" y2="300" stroke="#fff" stroke-width="1" />
    <line x1="0" y1="360" x2="1200" y2="360" stroke="#fff" stroke-width="1" />
    <line x1="0" y1="420" x2="1200" y2="420" stroke="#fff" stroke-width="1" />
    <line x1="0" y1="480" x2="1200" y2="480" stroke="#fff" stroke-width="1" />
    <line x1="0" y1="540" x2="1200" y2="540" stroke="#fff" stroke-width="1" />
    <line x1="0" y1="600" x2="1200" y2="600" stroke="#fff" stroke-width="1" />
  </g>

  <!-- Glow orb top-right -->
  <circle cx="950" cy="150" r="250" fill="url(#glow)" />

  <!-- Glow orb bottom-left -->
  <circle cx="250" cy="500" r="200" fill="url(#glow)" />

  <!-- Command palette icon (stylized) -->
  <g transform="translate(600, 175)">
    <rect x="-50" y="-30" width="100" height="60" rx="12" fill="none" stroke="url(#accent)" stroke-width="2.5" opacity="0.8" />
    <text x="0" y="8" font-family="system-ui, -apple-system, sans-serif" font-size="28" font-weight="700" fill="url(#accent)" text-anchor="middle">&#x2318;K</text>
  </g>

  <!-- Title -->
  <text x="600" y="290" font-family="system-ui, -apple-system, 'Segoe UI', sans-serif" font-size="52" font-weight="800" fill="#ffffff" text-anchor="middle" letter-spacing="-1">@crimson_dev/command</text>

  <!-- Tagline -->
  <text x="600" y="340" font-family="system-ui, -apple-system, 'Segoe UI', sans-serif" font-size="24" font-weight="400" fill="#a0a0c0" text-anchor="middle">The definitive command palette engine</text>

  <!-- Divider line -->
  <line x1="400" y1="380" x2="800" y2="380" stroke="#dc2626" stroke-width="2" opacity="0.4" />

  <!-- Stats pills -->
  <g transform="translate(600, 430)">
    <!-- 2.8KB core -->
    <g transform="translate(-330, 0)">
      <rect x="0" y="-18" width="140" height="36" rx="18" fill="#ffffff" fill-opacity="0.06" stroke="#ffffff" stroke-opacity="0.12" stroke-width="1" />
      <text x="70" y="6" font-family="'SF Mono', 'Cascadia Code', 'Fira Code', monospace" font-size="15" font-weight="600" fill="#e0e0f0" text-anchor="middle">2.8KB core</text>
    </g>
    <!-- React 19 -->
    <g transform="translate(-155, 0)">
      <rect x="0" y="-18" width="130" height="36" rx="18" fill="#ffffff" fill-opacity="0.06" stroke="#ffffff" stroke-opacity="0.12" stroke-width="1" />
      <text x="65" y="6" font-family="'SF Mono', 'Cascadia Code', 'Fira Code', monospace" font-size="15" font-weight="600" fill="#e0e0f0" text-anchor="middle">React 19</text>
    </g>
    <!-- ES2026 -->
    <g transform="translate(10, 0)">
      <rect x="0" y="-18" width="120" height="36" rx="18" fill="#ffffff" fill-opacity="0.06" stroke="#ffffff" stroke-opacity="0.12" stroke-width="1" />
      <text x="60" y="6" font-family="'SF Mono', 'Cascadia Code', 'Fira Code', monospace" font-size="15" font-weight="600" fill="#e0e0f0" text-anchor="middle">ES2026</text>
    </g>
    <!-- WASM -->
    <g transform="translate(165, 0)">
      <rect x="0" y="-18" width="110" height="36" rx="18" fill="#ffffff" fill-opacity="0.06" stroke="#ffffff" stroke-opacity="0.12" stroke-width="1" />
      <text x="55" y="6" font-family="'SF Mono', 'Cascadia Code', 'Fira Code', monospace" font-size="15" font-weight="600" fill="#e0e0f0" text-anchor="middle">WASM</text>
    </g>
  </g>

  <!-- Bottom tagline -->
  <text x="600" y="530" font-family="system-ui, -apple-system, 'Segoe UI', sans-serif" font-size="16" font-weight="400" fill="#6060a0" text-anchor="middle">Framework-agnostic headless command palette</text>

  <!-- Subtle border -->
  <rect x="0" y="0" width="1200" height="630" fill="none" stroke="#ffffff" stroke-opacity="0.05" stroke-width="1" />
</svg>
